# xmcd
#
# Track frame offsets: 
#        150
#        21695
#        41371
#        60996
#        84136
#        104266
#        125776
#        147190
#        167543
#        189320
#
# Disc length: 2797 seconds
#
# Revision: 0
# Processed by: cddbd v1.5.2PL0 Copyright (c) Steve Scherf et al.
# Submitted via: ExactAudioCopy v0.99pb5
#
DISCID=7c0aeb0a
DTITLE=จ่าส่ง ร็อคออนซอน - ไปไล่แย้
DYEAR=2010
DGENRE=Country
TTITLE0=เมียจ้างเหล้า
TTITLE1=ไปไล่แย้
TTITLE2=ต้มงูสิง
TTITLE3=อ้ายสิโสเจ็บ
TTITLE4=สีนานวล
TTITLE5=โจรตาเดียว
TTITLE6=เมียซิ่ง
TTITLE7=สิให้ดีซ่ำใด๋
TTITLE8=ถืกตั๋วเป็นผัวน้อย
TTITLE9=เสือเฒ่า
EXTD=
EXTT0=
EXTT1=
EXTT2=
EXTT3=
EXTT4=
EXTT5=
EXTT6=
EXTT7=
EXTT8=
EXTT9=
PLAYORDER=
